# xmcd
#
# Track frame offsets: 
#        150
#        12085
#        26162
#        44385
#        62120
#        80022
#        97327
#        114380
#        134550
#        148497
#        180290
#        193232
#        204880
#        220520
#        238562
#        261470
#        279687
#        297090
#        328785
#
# Disc length: 4795 seconds
#
# Revision: 1
# Processed by: cddbd v1.5.2PL0 Copyright (c) Steve Scherf et al.
# Submitted via: ExactAudioCopy v1.3
#
DISCID=2b12b913
DTITLE=Alan Jackson - Greatest Hits Vol II
DYEAR=2003
DGENRE=Country
TTITLE0=Little Bitty
TTITLE1=Everything I Love
TTITLE2=Who's Cheatin' Who
TTITLE3=There Goes
TTITLE4=I'll Go On Loving You
TTITLE5=Right On The Money
TTITLE6=Gone Crazy
TTITLE7=Little Man
TTITLE8=Pop A Top
TTITLE9=The Blues Man
TTITLE10=It Must Be Love
TTITLE11=WWW.Memory
TTITLE12=When Somebody Loves You
TTITLE13=Where I Come From
TTITLE14=Where Were You (When The World Stopped Turning)
TTITLE15=Drive (For Daddy Gene)
TTITLE16=It's Five O'Clock Somewhere
TTITLE17=Remember When
TTITLE18=*** Computer Data Track ***
EXTD=YEAR: 2003
EXTT0=
EXTT1=
EXTT2=
EXTT3=
EXTT4=
EXTT5=
EXTT6=
EXTT7=
EXTT8=
EXTT9=
EXTT10=
EXTT11=
EXTT12=
EXTT13=
EXTT14=
EXTT15=
EXTT16=
EXTT17=
EXTT18=
PLAYORDER=
